<svg width="24" height="24" viewBox="0 0 21 21" fill="none" xmlns="http://www.w3.org/2000/svg">
<g clip-path="url(#clip0_6294_38059)">
<path fill-rule="evenodd" clip-rule="evenodd" d="M21 4.5H3C2.60218 4.5 2.22064 4.65804 1.93934 4.93934C1.65804 5.22064 1.5 5.60218 1.5 6V18C1.5 18.3978 1.65804 18.7794 1.93934 19.0607C2.22064 19.342 2.60218 19.5 3 19.5H21C21.3978 19.5 21.7794 19.342 22.0607 19.0607C22.342 18.7794 22.5 18.3978 22.5 18V6C22.5 5.60218 22.342 5.22064 22.0607 4.93934C21.7794 4.65804 21.3978 4.5 21 4.5V4.5ZM3 3C2.20435 3 1.44129 3.31607 0.87868 3.87868C0.316071 4.44129 0 5.20435 0 6L0 18C0 18.7956 0.316071 19.5587 0.87868 20.1213C1.44129 20.6839 2.20435 21 3 21H21C21.7956 21 22.5587 20.6839 23.1213 20.1213C23.6839 19.5587 24 18.7956 24 18V6C24 5.20435 23.6839 4.44129 23.1213 3.87868C22.5587 3.31607 21.7956 3 21 3H3Z" fill="black"/>
<path d="M6 13.5H4.5C3.67157 13.5 3 14.1716 3 15V16.5C3 17.3284 3.67157 18 4.5 18H6C6.82843 18 7.5 17.3284 7.5 16.5V15C7.5 14.1716 6.82843 13.5 6 13.5Z" fill="black"/>
<path d="M1.5 7.5H22.5V10.5H1.5V7.5Z" fill="black"/>
</g>
<defs>
<clipPath id="clip0_6294_38059">
<rect width="24" height="24" fill="white"/>
</clipPath>
</defs>
</svg>
