<?xml version="1.0" standalone="no"?>
<!DOCTYPE svg PUBLIC "-//W3C//DTD SVG 20010904//EN"
 "http://www.w3.org/TR/2001/REC-SVG-20010904/DTD/svg10.dtd">
<svg version="1.0" xmlns="http://www.w3.org/2000/svg"
 width="1024.000000pt" height="1024.000000pt" viewBox="0 0 1024.000000 1024.000000"
 preserveAspectRatio="xMidYMid meet">

<g transform="translate(0.000000,1024.000000) scale(0.100000,-0.100000)"
fill="#8a8a8a" stroke="none">
<path d="M7855 10233 c-594 -47 -980 -130 -1435 -310 -915 -361 -1711 -1054
-2385 -2074 l-110 -167 -1085 -4 -1085 -3 -75 -23 c-103 -32 -245 -101 -333
-161 -94 -65 -206 -177 -262 -261 -51 -77 -1034 -2040 -1061 -2120 -28 -81
-26 -245 5 -322 47 -120 157 -231 279 -280 l57 -23 982 -3 982 -2 -119 -243
c-66 -133 -127 -271 -137 -307 -21 -84 -21 -217 1 -300 9 -36 35 -103 58 -150
41 -84 45 -89 627 -673 322 -324 612 -607 644 -629 153 -105 344 -145 510
-108 32 8 171 68 310 135 l252 121 5 -980 c5 -893 7 -985 22 -1023 64 -160
197 -276 357 -313 75 -18 191 -8 272 23 104 39 2058 1026 2124 1072 175 123
331 355 398 593 22 76 22 86 27 1153 l5 1075 160 109 c643 434 1136 887 1515
1390 488 648 762 1360 857 2225 26 237 26 1175 0 1450 -28 294 -88 675 -123
783 -38 114 -138 196 -280 227 -261 57 -618 102 -944 120 -165 9 -913 12
-1015 3z m873 -643 c129 -6 286 -15 350 -21 121 -11 395 -46 423 -55 29 -8 73
-386 89 -755 19 -431 9 -852 -25 -1139 -74 -607 -269 -1141 -598 -1635 -161
-243 -305 -414 -551 -660 -281 -280 -564 -511 -932 -758 -149 -100 -252 -153
-1684 -863 -839 -416 -1639 -812 -1778 -880 l-254 -123 -536 533 -536 533 331
669 c1489 3009 1425 2884 1545 3062 910 1352 1952 2009 3318 2091 195 12 569
12 838 1z m-5138 -2557 c0 -5 -212 -437 -472 -960 l-472 -953 -953 0 -953 0
440 880 c302 604 451 893 477 921 41 46 104 85 166 104 33 11 221 14 905 14
474 1 862 -2 862 -6z m3438 -4330 l-3 -888 -23 -46 c-56 -114 -16 -91 -983
-574 -489 -245 -891 -445 -894 -445 -3 0 -4 428 -3 950 l3 951 945 469 c520
258 948 469 953 469 4 1 6 -398 5 -886z"/>
<path d="M7172 8466 c-167 -32 -307 -88 -436 -175 -313 -211 -496 -555 -496
-931 0 -293 107 -561 309 -773 478 -501 1285 -455 1706 98 239 313 291 743
136 1116 -78 187 -244 384 -421 498 -185 119 -354 171 -580 177 -97 2 -169 -1
-218 -10z m274 -637 c250 -46 426 -293 385 -541 -34 -206 -193 -365 -398 -400
-254 -42 -503 140 -544 399 -45 280 175 543 462 552 19 0 62 -4 95 -10z"/>
</g>
</svg>
